<mxfile host="app.diagrams.net" agent="Mozilla/5.0 (X11; Linux x86_64) AppleWebKit/537.36 (KHTML, like Gecko) Chrome/138.0.0.0 Safari/537.36" version="28.0.6">
  <diagram name="Page-1" id="87iZc6W-HXpNxobG5Cnz">
    <mxGraphModel dx="2041" dy="706" grid="1" gridSize="10" guides="1" tooltips="1" connect="1" arrows="1" fold="1" page="1" pageScale="1" pageWidth="850" pageHeight="1100" math="0" shadow="0">
      <root>
        <mxCell id="0" />
        <mxCell id="1" parent="0" />
        <mxCell id="rzhLBbg9JTs_EqBXywYh-1" value="AWS Cloud" style="points=[[0,0],[0.25,0],[0.5,0],[0.75,0],[1,0],[1,0.25],[1,0.5],[1,0.75],[1,1],[0.75,1],[0.5,1],[0.25,1],[0,1],[0,0.75],[0,0.5],[0,0.25]];outlineConnect=0;gradientColor=none;html=1;whiteSpace=wrap;fontSize=12;fontStyle=0;container=1;pointerEvents=0;collapsible=0;recursiveResize=0;shape=mxgraph.aws4.group;grIcon=mxgraph.aws4.group_aws_cloud_alt;strokeColor=#232F3E;fillColor=none;verticalAlign=top;align=left;spacingLeft=30;fontColor=#232F3E;dashed=0;" vertex="1" parent="1">
          <mxGeometry x="30" y="420" width="950" height="660" as="geometry" />
        </mxCell>
        <mxCell id="rzhLBbg9JTs_EqBXywYh-2" value="Region" style="points=[[0,0],[0.25,0],[0.5,0],[0.75,0],[1,0],[1,0.25],[1,0.5],[1,0.75],[1,1],[0.75,1],[0.5,1],[0.25,1],[0,1],[0,0.75],[0,0.5],[0,0.25]];outlineConnect=0;gradientColor=none;html=1;whiteSpace=wrap;fontSize=12;fontStyle=0;container=1;pointerEvents=0;collapsible=0;recursiveResize=0;shape=mxgraph.aws4.group;grIcon=mxgraph.aws4.group_region;strokeColor=#00A4A6;fillColor=none;verticalAlign=top;align=left;spacingLeft=30;fontColor=#147EBA;dashed=1;" vertex="1" parent="1">
          <mxGeometry x="60" y="480" width="860" height="560" as="geometry" />
        </mxCell>
        <mxCell id="rzhLBbg9JTs_EqBXywYh-4" value="Availability Zone" style="fillColor=none;strokeColor=#147EBA;dashed=1;verticalAlign=top;fontStyle=0;fontColor=#147EBA;whiteSpace=wrap;html=1;" vertex="1" parent="rzhLBbg9JTs_EqBXywYh-2">
          <mxGeometry x="50" y="40" width="260" height="480" as="geometry" />
        </mxCell>
        <mxCell id="rzhLBbg9JTs_EqBXywYh-5" value="Availability Zone" style="fillColor=none;strokeColor=#147EBA;dashed=1;verticalAlign=top;fontStyle=0;fontColor=#147EBA;whiteSpace=wrap;html=1;" vertex="1" parent="rzhLBbg9JTs_EqBXywYh-2">
          <mxGeometry x="400" y="35" width="280" height="485" as="geometry" />
        </mxCell>
        <mxCell id="rzhLBbg9JTs_EqBXywYh-11" value="" style="sketch=0;outlineConnect=0;fontColor=#232F3E;gradientColor=none;fillColor=#8C4FFF;strokeColor=none;dashed=0;verticalLabelPosition=bottom;verticalAlign=top;align=center;html=1;fontSize=12;fontStyle=0;aspect=fixed;pointerEvents=1;shape=mxgraph.aws4.internet_gateway;" vertex="1" parent="rzhLBbg9JTs_EqBXywYh-2">
          <mxGeometry x="-10" y="310" width="60" height="60" as="geometry" />
        </mxCell>
        <mxCell id="rzhLBbg9JTs_EqBXywYh-12" value="" style="outlineConnect=0;dashed=0;verticalLabelPosition=bottom;verticalAlign=top;align=center;html=1;shape=mxgraph.aws3.application_load_balancer;fillColor=#F58534;gradientColor=none;" vertex="1" parent="rzhLBbg9JTs_EqBXywYh-2">
          <mxGeometry x="100" y="270" width="69" height="60" as="geometry" />
        </mxCell>
        <mxCell id="rzhLBbg9JTs_EqBXywYh-17" value="" style="sketch=0;points=[[0,0,0],[0.25,0,0],[0.5,0,0],[0.75,0,0],[1,0,0],[0,1,0],[0.25,1,0],[0.5,1,0],[0.75,1,0],[1,1,0],[0,0.25,0],[0,0.5,0],[0,0.75,0],[1,0.25,0],[1,0.5,0],[1,0.75,0]];outlineConnect=0;fontColor=#232F3E;fillColor=#ED7100;strokeColor=#ffffff;dashed=0;verticalLabelPosition=bottom;verticalAlign=top;align=center;html=1;fontSize=12;fontStyle=0;aspect=fixed;shape=mxgraph.aws4.resourceIcon;resIcon=mxgraph.aws4.ecr;" vertex="1" parent="rzhLBbg9JTs_EqBXywYh-2">
          <mxGeometry x="760" y="200" width="78" height="78" as="geometry" />
        </mxCell>
        <mxCell id="rzhLBbg9JTs_EqBXywYh-19" value="" style="sketch=0;points=[[0,0,0],[0.25,0,0],[0.5,0,0],[0.75,0,0],[1,0,0],[0,1,0],[0.25,1,0],[0.5,1,0],[0.75,1,0],[1,1,0],[0,0.25,0],[0,0.5,0],[0,0.75,0],[1,0.25,0],[1,0.5,0],[1,0.75,0]];outlineConnect=0;fontColor=#232F3E;fillColor=#ED7100;strokeColor=#ffffff;dashed=0;verticalLabelPosition=bottom;verticalAlign=top;align=center;html=1;fontSize=12;fontStyle=0;aspect=fixed;shape=mxgraph.aws4.resourceIcon;resIcon=mxgraph.aws4.fargate;" vertex="1" parent="rzhLBbg9JTs_EqBXywYh-2">
          <mxGeometry x="501.82" y="265" width="68" height="68" as="geometry" />
        </mxCell>
        <mxCell id="rzhLBbg9JTs_EqBXywYh-22" value="" style="sketch=0;points=[[0,0,0],[0.25,0,0],[0.5,0,0],[0.75,0,0],[1,0,0],[0,1,0],[0.25,1,0],[0.5,1,0],[0.75,1,0],[1,1,0],[0,0.25,0],[0,0.5,0],[0,0.75,0],[1,0.25,0],[1,0.5,0],[1,0.75,0]];points=[[0,0,0],[0.25,0,0],[0.5,0,0],[0.75,0,0],[1,0,0],[0,1,0],[0.25,1,0],[0.5,1,0],[0.75,1,0],[1,1,0],[0,0.25,0],[0,0.5,0],[0,0.75,0],[1,0.25,0],[1,0.5,0],[1,0.75,0]];outlineConnect=0;fontColor=#232F3E;fillColor=#E7157B;strokeColor=#ffffff;dashed=0;verticalLabelPosition=bottom;verticalAlign=top;align=center;html=1;fontSize=12;fontStyle=0;aspect=fixed;shape=mxgraph.aws4.resourceIcon;resIcon=mxgraph.aws4.cloudwatch_2;" vertex="1" parent="rzhLBbg9JTs_EqBXywYh-2">
          <mxGeometry x="760" y="334" width="78" height="78" as="geometry" />
        </mxCell>
        <mxCell id="rzhLBbg9JTs_EqBXywYh-44" value="10.0.0.0/16" style="text;html=1;align=center;verticalAlign=middle;whiteSpace=wrap;rounded=0;" vertex="1" parent="rzhLBbg9JTs_EqBXywYh-2">
          <mxGeometry x="80" y="70" width="60" height="30" as="geometry" />
        </mxCell>
        <mxCell id="rzhLBbg9JTs_EqBXywYh-53" value="Fargate" style="text;html=1;align=center;verticalAlign=middle;whiteSpace=wrap;rounded=0;" vertex="1" parent="rzhLBbg9JTs_EqBXywYh-2">
          <mxGeometry x="569.8199999999999" y="304" width="60" height="30" as="geometry" />
        </mxCell>
        <mxCell id="rzhLBbg9JTs_EqBXywYh-54" value="ECR" style="text;html=1;align=center;verticalAlign=middle;whiteSpace=wrap;rounded=0;" vertex="1" parent="rzhLBbg9JTs_EqBXywYh-2">
          <mxGeometry x="760" y="160" width="60" height="30" as="geometry" />
        </mxCell>
        <mxCell id="rzhLBbg9JTs_EqBXywYh-55" value="Cloudwatch" style="text;html=1;align=center;verticalAlign=middle;whiteSpace=wrap;rounded=0;" vertex="1" parent="rzhLBbg9JTs_EqBXywYh-2">
          <mxGeometry x="769" y="430" width="60" height="30" as="geometry" />
        </mxCell>
        <mxCell id="rzhLBbg9JTs_EqBXywYh-57" value="US-WEST-1" style="text;html=1;align=center;verticalAlign=middle;whiteSpace=wrap;rounded=0;" vertex="1" parent="rzhLBbg9JTs_EqBXywYh-2">
          <mxGeometry x="80" y="5" width="80" height="30" as="geometry" />
        </mxCell>
        <mxCell id="rzhLBbg9JTs_EqBXywYh-6" value="VPC" style="points=[[0,0],[0.25,0],[0.5,0],[0.75,0],[1,0],[1,0.25],[1,0.5],[1,0.75],[1,1],[0.75,1],[0.5,1],[0.25,1],[0,1],[0,0.75],[0,0.5],[0,0.25]];outlineConnect=0;gradientColor=none;html=1;whiteSpace=wrap;fontSize=12;fontStyle=0;container=1;pointerEvents=0;collapsible=0;recursiveResize=0;shape=mxgraph.aws4.group;grIcon=mxgraph.aws4.group_vpc2;strokeColor=#8C4FFF;fillColor=none;verticalAlign=top;align=left;spacingLeft=30;fontColor=#AAB7B8;dashed=0;" vertex="1" parent="1">
          <mxGeometry x="80" y="550" width="710" height="430" as="geometry" />
        </mxCell>
        <mxCell id="rzhLBbg9JTs_EqBXywYh-7" value="Public subnet" style="points=[[0,0],[0.25,0],[0.5,0],[0.75,0],[1,0],[1,0.25],[1,0.5],[1,0.75],[1,1],[0.75,1],[0.5,1],[0.25,1],[0,1],[0,0.75],[0,0.5],[0,0.25]];outlineConnect=0;gradientColor=none;html=1;whiteSpace=wrap;fontSize=12;fontStyle=0;container=1;pointerEvents=0;collapsible=0;recursiveResize=0;shape=mxgraph.aws4.group;grIcon=mxgraph.aws4.group_security_group;grStroke=0;strokeColor=#7AA116;fillColor=#F2F6E8;verticalAlign=top;align=left;spacingLeft=30;fontColor=#248814;dashed=0;" vertex="1" parent="rzhLBbg9JTs_EqBXywYh-6">
          <mxGeometry x="50" y="50" width="190" height="130" as="geometry" />
        </mxCell>
        <mxCell id="rzhLBbg9JTs_EqBXywYh-13" value="" style="sketch=0;outlineConnect=0;fontColor=#232F3E;gradientColor=none;fillColor=#8C4FFF;strokeColor=none;dashed=0;verticalLabelPosition=bottom;verticalAlign=top;align=center;html=1;fontSize=12;fontStyle=0;aspect=fixed;pointerEvents=1;shape=mxgraph.aws4.nat_gateway;" vertex="1" parent="rzhLBbg9JTs_EqBXywYh-7">
          <mxGeometry x="60" y="41" width="48" height="48" as="geometry" />
        </mxCell>
        <mxCell id="rzhLBbg9JTs_EqBXywYh-59" value="NAT" style="text;html=1;align=center;verticalAlign=middle;whiteSpace=wrap;rounded=0;" vertex="1" parent="rzhLBbg9JTs_EqBXywYh-7">
          <mxGeometry x="70" y="89" width="60" height="30" as="geometry" />
        </mxCell>
        <mxCell id="rzhLBbg9JTs_EqBXywYh-9" value="Private subnet" style="points=[[0,0],[0.25,0],[0.5,0],[0.75,0],[1,0],[1,0.25],[1,0.5],[1,0.75],[1,1],[0.75,1],[0.5,1],[0.25,1],[0,1],[0,0.75],[0,0.5],[0,0.25]];outlineConnect=0;gradientColor=none;html=1;whiteSpace=wrap;fontSize=12;fontStyle=0;container=1;pointerEvents=0;collapsible=0;recursiveResize=0;shape=mxgraph.aws4.group;grIcon=mxgraph.aws4.group_security_group;grStroke=0;strokeColor=#00A4A6;fillColor=#E6F6F7;verticalAlign=top;align=left;spacingLeft=30;fontColor=#147EBA;dashed=0;" vertex="1" parent="rzhLBbg9JTs_EqBXywYh-6">
          <mxGeometry x="400" y="50" width="240" height="140" as="geometry" />
        </mxCell>
        <mxCell id="rzhLBbg9JTs_EqBXywYh-20" value="" style="points=[];aspect=fixed;html=1;align=center;shadow=0;dashed=0;fillColor=#FF6A00;strokeColor=none;shape=mxgraph.alibaba_cloud.ecs_elastic_compute_service;" vertex="1" parent="rzhLBbg9JTs_EqBXywYh-9">
          <mxGeometry x="81.82" y="40" width="75.1" height="70" as="geometry" />
        </mxCell>
        <mxCell id="rzhLBbg9JTs_EqBXywYh-51" value="ecs service" style="text;html=1;align=center;verticalAlign=middle;whiteSpace=wrap;rounded=0;" vertex="1" parent="rzhLBbg9JTs_EqBXywYh-9">
          <mxGeometry x="120" y="10" width="60" height="30" as="geometry" />
        </mxCell>
        <mxCell id="rzhLBbg9JTs_EqBXywYh-10" value="Private subnet" style="points=[[0,0],[0.25,0],[0.5,0],[0.75,0],[1,0],[1,0.25],[1,0.5],[1,0.75],[1,1],[0.75,1],[0.5,1],[0.25,1],[0,1],[0,0.75],[0,0.5],[0,0.25]];outlineConnect=0;gradientColor=none;html=1;whiteSpace=wrap;fontSize=12;fontStyle=0;container=1;pointerEvents=0;collapsible=0;recursiveResize=0;shape=mxgraph.aws4.group;grIcon=mxgraph.aws4.group_security_group;grStroke=0;strokeColor=#00A4A6;fillColor=#E6F6F7;verticalAlign=top;align=left;spacingLeft=30;fontColor=#147EBA;dashed=0;" vertex="1" parent="rzhLBbg9JTs_EqBXywYh-6">
          <mxGeometry x="400" y="270" width="240" height="150" as="geometry" />
        </mxCell>
        <mxCell id="rzhLBbg9JTs_EqBXywYh-21" value="" style="points=[];aspect=fixed;html=1;align=center;shadow=0;dashed=0;fillColor=#FF6A00;strokeColor=none;shape=mxgraph.alibaba_cloud.ecs_elastic_compute_service;" vertex="1" parent="rzhLBbg9JTs_EqBXywYh-10">
          <mxGeometry x="78.27000000000004" y="50" width="75.1" height="70" as="geometry" />
        </mxCell>
        <mxCell id="rzhLBbg9JTs_EqBXywYh-52" value="ecs service" style="text;html=1;align=center;verticalAlign=middle;whiteSpace=wrap;rounded=0;" vertex="1" parent="rzhLBbg9JTs_EqBXywYh-10">
          <mxGeometry x="149.81999999999994" y="40" width="60" height="30" as="geometry" />
        </mxCell>
        <mxCell id="rzhLBbg9JTs_EqBXywYh-15" value="Public subnet" style="points=[[0,0],[0.25,0],[0.5,0],[0.75,0],[1,0],[1,0.25],[1,0.5],[1,0.75],[1,1],[0.75,1],[0.5,1],[0.25,1],[0,1],[0,0.75],[0,0.5],[0,0.25]];outlineConnect=0;gradientColor=none;html=1;whiteSpace=wrap;fontSize=12;fontStyle=0;container=1;pointerEvents=0;collapsible=0;recursiveResize=0;shape=mxgraph.aws4.group;grIcon=mxgraph.aws4.group_security_group;grStroke=0;strokeColor=#7AA116;fillColor=#F2F6E8;verticalAlign=top;align=left;spacingLeft=30;fontColor=#248814;dashed=0;" vertex="1" parent="rzhLBbg9JTs_EqBXywYh-6">
          <mxGeometry x="50" y="290" width="190" height="130" as="geometry" />
        </mxCell>
        <mxCell id="rzhLBbg9JTs_EqBXywYh-16" value="" style="sketch=0;outlineConnect=0;fontColor=#232F3E;gradientColor=none;fillColor=#8C4FFF;strokeColor=none;dashed=0;verticalLabelPosition=bottom;verticalAlign=top;align=center;html=1;fontSize=12;fontStyle=0;aspect=fixed;pointerEvents=1;shape=mxgraph.aws4.nat_gateway;" vertex="1" parent="rzhLBbg9JTs_EqBXywYh-15">
          <mxGeometry x="60" y="41" width="48" height="48" as="geometry" />
        </mxCell>
        <mxCell id="rzhLBbg9JTs_EqBXywYh-18" value="" style="sketch=0;points=[[0,0,0],[0.25,0,0],[0.5,0,0],[0.75,0,0],[1,0,0],[0,1,0],[0.25,1,0],[0.5,1,0],[0.75,1,0],[1,1,0],[0,0.25,0],[0,0.5,0],[0,0.75,0],[1,0.25,0],[1,0.5,0],[1,0.75,0]];outlineConnect=0;fontColor=#232F3E;fillColor=#ED7100;strokeColor=#ffffff;dashed=0;verticalLabelPosition=bottom;verticalAlign=top;align=center;html=1;fontSize=12;fontStyle=0;aspect=fixed;shape=mxgraph.aws4.resourceIcon;resIcon=mxgraph.aws4.ecs;" vertex="1" parent="rzhLBbg9JTs_EqBXywYh-6">
          <mxGeometry x="300" y="190" width="78" height="78" as="geometry" />
        </mxCell>
        <mxCell id="rzhLBbg9JTs_EqBXywYh-47" value="" style="endArrow=classic;html=1;rounded=0;entryX=0.059;entryY=0.211;entryDx=0;entryDy=0;entryPerimeter=0;" edge="1" parent="rzhLBbg9JTs_EqBXywYh-6" source="rzhLBbg9JTs_EqBXywYh-13" target="rzhLBbg9JTs_EqBXywYh-20">
          <mxGeometry width="50" height="50" relative="1" as="geometry">
            <mxPoint x="390" y="150" as="sourcePoint" />
            <mxPoint x="440" y="100" as="targetPoint" />
          </mxGeometry>
        </mxCell>
        <mxCell id="rzhLBbg9JTs_EqBXywYh-48" value="" style="endArrow=classic;html=1;rounded=0;entryX=0.022;entryY=0.522;entryDx=0;entryDy=0;entryPerimeter=0;" edge="1" parent="rzhLBbg9JTs_EqBXywYh-6" source="rzhLBbg9JTs_EqBXywYh-16" target="rzhLBbg9JTs_EqBXywYh-21">
          <mxGeometry width="50" height="50" relative="1" as="geometry">
            <mxPoint x="390" y="150" as="sourcePoint" />
            <mxPoint x="440" y="100" as="targetPoint" />
          </mxGeometry>
        </mxCell>
        <mxCell id="rzhLBbg9JTs_EqBXywYh-56" value="ECS" style="text;html=1;align=center;verticalAlign=middle;whiteSpace=wrap;rounded=0;" vertex="1" parent="rzhLBbg9JTs_EqBXywYh-6">
          <mxGeometry x="300" y="160" width="60" height="30" as="geometry" />
        </mxCell>
        <mxCell id="rzhLBbg9JTs_EqBXywYh-58" value="IGW" style="text;html=1;align=center;verticalAlign=middle;whiteSpace=wrap;rounded=0;" vertex="1" parent="rzhLBbg9JTs_EqBXywYh-6">
          <mxGeometry x="-30" y="300" width="60" height="30" as="geometry" />
        </mxCell>
        <mxCell id="rzhLBbg9JTs_EqBXywYh-25" value="Users" style="sketch=0;outlineConnect=0;fontColor=#232F3E;gradientColor=none;strokeColor=#232F3E;fillColor=#ffffff;dashed=0;verticalLabelPosition=bottom;verticalAlign=top;align=center;html=1;fontSize=12;fontStyle=0;aspect=fixed;shape=mxgraph.aws4.resourceIcon;resIcon=mxgraph.aws4.users;" vertex="1" parent="1">
          <mxGeometry x="-110" y="750" width="60" height="60" as="geometry" />
        </mxCell>
        <mxCell id="rzhLBbg9JTs_EqBXywYh-26" value="" style="endArrow=classic;html=1;rounded=0;" edge="1" parent="1" source="rzhLBbg9JTs_EqBXywYh-25" target="rzhLBbg9JTs_EqBXywYh-12">
          <mxGeometry width="50" height="50" relative="1" as="geometry">
            <mxPoint x="470" y="920" as="sourcePoint" />
            <mxPoint x="520" y="870" as="targetPoint" />
          </mxGeometry>
        </mxCell>
        <mxCell id="rzhLBbg9JTs_EqBXywYh-27" value="" style="endArrow=classic;html=1;rounded=0;exitX=1;exitY=0.5;exitDx=0;exitDy=0;exitPerimeter=0;" edge="1" parent="1" source="rzhLBbg9JTs_EqBXywYh-12" target="rzhLBbg9JTs_EqBXywYh-18">
          <mxGeometry width="50" height="50" relative="1" as="geometry">
            <mxPoint x="470" y="920" as="sourcePoint" />
            <mxPoint x="520" y="870" as="targetPoint" />
          </mxGeometry>
        </mxCell>
        <mxCell id="rzhLBbg9JTs_EqBXywYh-28" value="" style="endArrow=classic;html=1;rounded=0;exitX=1;exitY=0.5;exitDx=0;exitDy=0;exitPerimeter=0;" edge="1" parent="1" source="rzhLBbg9JTs_EqBXywYh-18" target="rzhLBbg9JTs_EqBXywYh-19">
          <mxGeometry width="50" height="50" relative="1" as="geometry">
            <mxPoint x="470" y="920" as="sourcePoint" />
            <mxPoint x="520" y="870" as="targetPoint" />
          </mxGeometry>
        </mxCell>
        <mxCell id="rzhLBbg9JTs_EqBXywYh-29" value="" style="endArrow=classic;html=1;rounded=0;exitX=0.5;exitY=0;exitDx=0;exitDy=0;exitPerimeter=0;entryX=0.459;entryY=0.977;entryDx=0;entryDy=0;entryPerimeter=0;" edge="1" parent="1" source="rzhLBbg9JTs_EqBXywYh-19" target="rzhLBbg9JTs_EqBXywYh-20">
          <mxGeometry width="50" height="50" relative="1" as="geometry">
            <mxPoint x="470" y="920" as="sourcePoint" />
            <mxPoint x="520" y="870" as="targetPoint" />
          </mxGeometry>
        </mxCell>
        <mxCell id="rzhLBbg9JTs_EqBXywYh-30" value="" style="endArrow=classic;html=1;rounded=0;exitX=0.5;exitY=1;exitDx=0;exitDy=0;exitPerimeter=0;" edge="1" parent="1" source="rzhLBbg9JTs_EqBXywYh-19" target="rzhLBbg9JTs_EqBXywYh-21">
          <mxGeometry width="50" height="50" relative="1" as="geometry">
            <mxPoint x="470" y="920" as="sourcePoint" />
            <mxPoint x="520" y="870" as="targetPoint" />
          </mxGeometry>
        </mxCell>
        <mxCell id="rzhLBbg9JTs_EqBXywYh-31" value="" style="endArrow=classic;html=1;rounded=0;exitX=0.978;exitY=0.47;exitDx=0;exitDy=0;exitPerimeter=0;entryX=0;entryY=0.5;entryDx=0;entryDy=0;entryPerimeter=0;" edge="1" parent="1" source="rzhLBbg9JTs_EqBXywYh-21" target="rzhLBbg9JTs_EqBXywYh-17">
          <mxGeometry width="50" height="50" relative="1" as="geometry">
            <mxPoint x="470" y="920" as="sourcePoint" />
            <mxPoint x="520" y="870" as="targetPoint" />
            <Array as="points">
              <mxPoint x="750" y="900" />
              <mxPoint x="750" y="719" />
            </Array>
          </mxGeometry>
        </mxCell>
        <mxCell id="rzhLBbg9JTs_EqBXywYh-32" value="" style="endArrow=none;html=1;rounded=0;entryX=0.991;entryY=0.509;entryDx=0;entryDy=0;entryPerimeter=0;" edge="1" parent="1" target="rzhLBbg9JTs_EqBXywYh-20">
          <mxGeometry width="50" height="50" relative="1" as="geometry">
            <mxPoint x="750" y="720" as="sourcePoint" />
            <mxPoint x="520" y="870" as="targetPoint" />
            <Array as="points">
              <mxPoint x="750" y="676" />
            </Array>
          </mxGeometry>
        </mxCell>
        <mxCell id="rzhLBbg9JTs_EqBXywYh-33" value="" style="endArrow=classic;html=1;rounded=0;exitX=1.039;exitY=0.847;exitDx=0;exitDy=0;exitPerimeter=0;" edge="1" parent="1" source="rzhLBbg9JTs_EqBXywYh-21" target="rzhLBbg9JTs_EqBXywYh-22">
          <mxGeometry width="50" height="50" relative="1" as="geometry">
            <mxPoint x="470" y="920" as="sourcePoint" />
            <mxPoint x="520" y="870" as="targetPoint" />
            <Array as="points">
              <mxPoint x="760" y="930" />
            </Array>
          </mxGeometry>
        </mxCell>
        <mxCell id="rzhLBbg9JTs_EqBXywYh-34" value="" style="endArrow=classic;html=1;rounded=0;exitX=1.04;exitY=0.86;exitDx=0;exitDy=0;exitPerimeter=0;entryX=0;entryY=0.25;entryDx=0;entryDy=0;entryPerimeter=0;" edge="1" parent="1" source="rzhLBbg9JTs_EqBXywYh-20" target="rzhLBbg9JTs_EqBXywYh-22">
          <mxGeometry width="50" height="50" relative="1" as="geometry">
            <mxPoint x="470" y="920" as="sourcePoint" />
            <mxPoint x="520" y="870" as="targetPoint" />
          </mxGeometry>
        </mxCell>
        <mxCell id="rzhLBbg9JTs_EqBXywYh-36" value="" style="dashed=0;outlineConnect=0;html=1;align=center;labelPosition=center;verticalLabelPosition=bottom;verticalAlign=top;shape=mxgraph.weblogos.github" vertex="1" parent="1">
          <mxGeometry x="380" y="150" width="75" height="75" as="geometry" />
        </mxCell>
        <mxCell id="rzhLBbg9JTs_EqBXywYh-37" value="Text" style="text;html=1;align=center;verticalAlign=middle;whiteSpace=wrap;rounded=0;" vertex="1" parent="1">
          <mxGeometry x="190" y="180" width="60" height="30" as="geometry" />
        </mxCell>
        <mxCell id="rzhLBbg9JTs_EqBXywYh-38" value="" style="whiteSpace=wrap;html=1;shape=mxgraph.basic.document" vertex="1" parent="1">
          <mxGeometry x="170" y="137.5" width="100" height="100" as="geometry" />
        </mxCell>
        <mxCell id="rzhLBbg9JTs_EqBXywYh-39" value="Terraform config" style="text;html=1;align=center;verticalAlign=middle;resizable=0;points=[];autosize=1;strokeColor=none;fillColor=none;" vertex="1" parent="1">
          <mxGeometry x="165" y="168" width="110" height="30" as="geometry" />
        </mxCell>
        <mxCell id="rzhLBbg9JTs_EqBXywYh-40" value="" style="endArrow=classic;html=1;rounded=0;entryX=0.471;entryY=-0.008;entryDx=0;entryDy=0;entryPerimeter=0;" edge="1" parent="1" target="rzhLBbg9JTs_EqBXywYh-6">
          <mxGeometry width="50" height="50" relative="1" as="geometry">
            <mxPoint x="414" y="230" as="sourcePoint" />
            <mxPoint x="520" y="430" as="targetPoint" />
          </mxGeometry>
        </mxCell>
        <mxCell id="rzhLBbg9JTs_EqBXywYh-41" value="" style="endArrow=classic;html=1;rounded=0;exitX=1;exitY=0.5;exitDx=0;exitDy=0;exitPerimeter=0;" edge="1" parent="1" source="rzhLBbg9JTs_EqBXywYh-38" target="rzhLBbg9JTs_EqBXywYh-36">
          <mxGeometry width="50" height="50" relative="1" as="geometry">
            <mxPoint x="470" y="480" as="sourcePoint" />
            <mxPoint x="520" y="430" as="targetPoint" />
          </mxGeometry>
        </mxCell>
        <mxCell id="rzhLBbg9JTs_EqBXywYh-42" value="Github repo" style="text;html=1;align=center;verticalAlign=middle;whiteSpace=wrap;rounded=0;" vertex="1" parent="1">
          <mxGeometry x="460" y="180" width="60" height="30" as="geometry" />
        </mxCell>
        <mxCell id="rzhLBbg9JTs_EqBXywYh-43" value="Infra provision with Github actions workflow" style="text;html=1;align=center;verticalAlign=middle;whiteSpace=wrap;rounded=0;" vertex="1" parent="1">
          <mxGeometry x="425" y="310" width="95" height="30" as="geometry" />
        </mxCell>
        <mxCell id="rzhLBbg9JTs_EqBXywYh-49" value="" style="endArrow=classic;html=1;rounded=0;" edge="1" parent="1" source="rzhLBbg9JTs_EqBXywYh-11" target="rzhLBbg9JTs_EqBXywYh-16">
          <mxGeometry width="50" height="50" relative="1" as="geometry">
            <mxPoint x="470" y="700" as="sourcePoint" />
            <mxPoint x="520" y="650" as="targetPoint" />
            <Array as="points">
              <mxPoint x="130" y="900" />
            </Array>
          </mxGeometry>
        </mxCell>
        <mxCell id="rzhLBbg9JTs_EqBXywYh-50" value="" style="endArrow=classic;html=1;rounded=0;" edge="1" parent="1" source="rzhLBbg9JTs_EqBXywYh-11" target="rzhLBbg9JTs_EqBXywYh-13">
          <mxGeometry width="50" height="50" relative="1" as="geometry">
            <mxPoint x="470" y="700" as="sourcePoint" />
            <mxPoint x="520" y="650" as="targetPoint" />
          </mxGeometry>
        </mxCell>
      </root>
    </mxGraphModel>
  </diagram>
</mxfile>
